# xmcd
#
# Track frame offsets: 
#        150
#        17597
#        39253
#        59679
#        82774
#        104221
#        124172
#        147318
#        164923
#        182830
#
# Disc length: 2676 seconds
#
# Revision: 1
# Processed by: cddbd v1.5.2PL0 Copyright (c) Steve Scherf et al.
# Submitted via: ExactAudioCopy v1.0b3
#
DISCID=8d0a720a
DTITLE=GAINES,EARL - Nothin' But The Blues
DYEAR=2008
DGENRE=Blues
TTITLE0=24 Hours A Day
TTITLE1=Let's Call A Truce
TTITLE2=Meat And Potatoes Man
TTITLE3=Let The Past Be The Past
TTITLE4=If I Could Do It All Over
TTITLE5=You Better Know Your Hole From Mine
TTITLE6=Everything Sweet Reminds Me Of You
TTITLE7=Good Old Country Boy
TTITLE8=Nothing But Party Blues
TTITLE9=Cheat On Schedule
EXTD=
EXTT0=
EXTT1=
EXTT2=
EXTT3=
EXTT4=
EXTT5=
EXTT6=
EXTT7=
EXTT8=
EXTT9=
PLAYORDER=
